<svg width="600" height="600" viewBox="0 0 600 600" fill="none" xmlns="http://www.w3.org/2000/svg"><circle cx="300" cy="300" r="280" fill="url(#grad1)" /><defs><linearGradient id="grad1" x1="0%" y1="0%" x2="100%" y2="100%"><stop offset="0%" style="stop-color:#F5F5F5;stop-opacity:1" /><stop offset="100%" style="stop-color:#E0E0E0;stop-opacity:1" /></linearGradient></defs><path d="M100 500 Q 300 100 500 500" stroke="#A0D9B1" stroke-width="15" fill="none" stroke-opacity="0.7" stroke-linecap="round"/><path d="M150 500 Q 300 200 450 500" stroke="#BDBDBD" stroke-width="10" fill="none" stroke-opacity="0.5" stroke-linecap="round"/><rect x="180" y="250" width="100" height="120" rx="10" fill="white" stroke="#BDBDBD" stroke-width="2"/><line x1="195" y1="270" x2="265" y2="270" stroke="#E0E0E0" stroke-width="4"/><line x1="195" y1="285" x2="265" y2="285" stroke="#E0E0E0" stroke-width="4"/><line x1="195" y1="300" x2="245" y2="300" stroke="#E0E0E0" stroke-width="4"/><line x1="195" y1="315" x2="265" y2="315" stroke="#E0E0E0" stroke-width="4"/><line x1="195" y1="330" x2="255" y2="330" stroke="#E0E0E0" stroke-width="4"/><line x1="195" y1="345" x2="265" y2="345" stroke="#E0E0E0" stroke-width="4"/><rect x="320" y="300" width="80" height="100" rx="8" fill="white" stroke="#A0D9B1" stroke-width="2"/><line x1="330" y1="315" x2="390" y2="315" stroke="#E0E0E0" stroke-width="3"/><line x1="330" y1="328" x2="390" y2="328" stroke="#E0E0E0" stroke-width="3"/><line x1="330" y1="341" x2="370" y2="341" stroke="#E0E0E0" stroke-width="3"/><line x1="330" y1="354" x2="390" y2="354" stroke="#E0E0E0" stroke-width="3"/><line x1="330" y1="367" x2="380" y2="367" stroke="#E0E0E0" stroke-width="3"/><circle cx="230" cy="310" r="5" fill="#A0D9B1" fill-opacity="0.8"/><circle cx="360" cy="340" r="4" fill="#A0D9B1" fill-opacity="0.8"/><line x1="232" y1="312" x2="358" y2="338" stroke="#A0D9B1" stroke-width="2" stroke-opacity="0.7"/></svg>